<?xml version="1.0" encoding="UTF-8"?>
<!DOCTYPE svg PUBLIC "-//W3C//DTD SVG 1.1//EN" "http://www.w3.org/Graphics/SVG/1.1/DTD/svg11.dtd">
<svg xmlns="http://www.w3.org/2000/svg" version="1.1" width="225px" height="275px" style="shape-rendering:geometricPrecision; text-rendering:geometricPrecision; image-rendering:optimizeQuality; fill-rule:evenodd; clip-rule:evenodd" xmlns:xlink="http://www.w3.org/1999/xlink">
<g><path style="opacity:0.251" fill="#8ff6f2" d="M 144.5,35.5 C 133.506,34.2771 122.506,34.2771 111.5,35.5C 122.462,31.9195 133.462,31.9195 144.5,35.5 Z"/></g>
<g><path style="opacity:1" fill="#05e3d8" d="M 144.5,35.5 C 144.833,35.5 145.167,35.5 145.5,35.5C 145.944,37.1132 146.944,38.2798 148.5,39C 147.383,40.8921 145.716,41.7254 143.5,41.5C 143.719,40.325 143.386,39.325 142.5,38.5C 141.571,39.6888 141.238,41.0222 141.5,42.5C 134.97,42.296 128.803,42.6293 123,43.5C 122.667,42.8333 122.333,42.1667 122,41.5C 118.108,43.0749 113.941,44.0749 109.5,44.5C 111.005,45.8415 111.672,47.5082 111.5,49.5C 109.712,49.7852 108.045,49.4519 106.5,48.5C 109.276,46.7213 108.943,45.7213 105.5,45.5C 102.248,47.2488 98.9149,47.5821 95.5,46.5C 103.398,44.8864 103.398,43.8864 95.5,43.5C 100.588,40.4288 105.922,37.7622 111.5,35.5C 122.506,34.2771 133.506,34.2771 144.5,35.5 Z"/></g>
<g><path style="opacity:1" fill="#66e5df" d="M 111.5,35.5 C 105.922,37.7622 100.588,40.4288 95.5,43.5C 94.2347,44.4793 92.9014,45.4793 91.5,46.5C 89.8716,45.4647 88.205,45.4647 86.5,46.5C 93.9389,40.9504 102.272,37.2838 111.5,35.5 Z"/></g>
<g><path style="opacity:1" fill="#1ddfd9" d="M 145.5,35.5 C 157.389,38.4406 167.389,44.4406 175.5,53.5C 162.669,50.906 149.836,50.906 137,53.5C 135.317,54.1765 135.15,55.1765 136.5,56.5C 134.597,56.2041 132.93,55.5375 131.5,54.5C 130.5,53.8333 129.5,53.1667 128.5,52.5C 130.158,51.8186 131.825,50.9853 133.5,50C 133.037,47.4151 131.87,45.2484 130,43.5C 128.795,44.0712 127.628,44.7379 126.5,45.5C 126.709,46.086 127.043,46.586 127.5,47C 124.953,47.6595 122.453,47.4929 120,46.5C 117.268,47.8863 114.435,48.8863 111.5,49.5C 111.672,47.5082 111.005,45.8415 109.5,44.5C 113.941,44.0749 118.108,43.0749 122,41.5C 122.333,42.1667 122.667,42.8333 123,43.5C 128.803,42.6293 134.97,42.296 141.5,42.5C 141.238,41.0222 141.571,39.6888 142.5,38.5C 143.386,39.325 143.719,40.325 143.5,41.5C 145.716,41.7254 147.383,40.8921 148.5,39C 146.944,38.2798 145.944,37.1132 145.5,35.5 Z"/></g>
<g><path style="opacity:1" fill="#07dddb" d="M 95.5,43.5 C 103.398,43.8864 103.398,44.8864 95.5,46.5C 98.9149,47.5821 102.248,47.2488 105.5,45.5C 108.943,45.7213 109.276,46.7213 106.5,48.5C 108.045,49.4519 109.712,49.7852 111.5,49.5C 114.435,48.8863 117.268,47.8863 120,46.5C 122.453,47.4929 124.953,47.6595 127.5,47C 127.043,46.586 126.709,46.086 126.5,45.5C 127.628,44.7379 128.795,44.0712 130,43.5C 131.87,45.2484 133.037,47.4151 133.5,50C 131.825,50.9853 130.158,51.8186 128.5,52.5C 125.972,53.0114 123.472,53.6781 121,54.5C 116.549,53.8469 112.382,52.5136 108.5,50.5C 107.5,50.6667 106.5,50.8333 105.5,51C 107.667,52.5 109.833,54 112,55.5C 112.688,56.3317 112.521,56.9984 111.5,57.5C 110.312,56.16 108.812,55.4934 107,55.5C 103.402,56.6287 100.068,56.6287 97,55.5C 96.3109,54.6433 95.4776,53.9767 94.5,53.5C 93.5,55.1667 92.1667,56.5 90.5,57.5C 89.4063,56.132 89.7397,54.9653 91.5,54C 91,53.5 90.5,53 90,52.5C 88.1649,55.858 85.9982,56.1913 83.5,53.5C 81.6772,54.8449 79.6772,55.3449 77.5,55C 79.1166,53.9085 80.1166,52.4085 80.5,50.5C 82.1475,48.6736 84.1475,47.3403 86.5,46.5C 88.205,45.4647 89.8716,45.4647 91.5,46.5C 92.9014,45.4793 94.2347,44.4793 95.5,43.5 Z"/></g>
<g><path style="opacity:1" fill="#02e09a" d="M 144.5,59.5 C 143.365,57.7868 141.698,57.1201 139.5,57.5C 139.047,56.5416 138.381,55.7083 137.5,55C 140.853,54.2532 144.02,54.7532 147,56.5C 148.225,56.1377 149.391,55.6377 150.5,55C 148.715,53.8372 146.715,53.1705 144.5,53C 151.167,52.3333 157.833,52.3333 164.5,53C 166.882,54.9868 169.382,55.4868 172,54.5C 172.833,54.8333 173.667,55.1667 174.5,55.5C 174.154,56.6956 173.654,56.6956 173,55.5C 171.261,56.8943 169.261,57.5609 167,57.5C 164.491,56.9075 161.991,56.7408 159.5,57C 158.289,58.1131 158.289,59.2798 159.5,60.5C 164.649,59.603 169.982,59.603 175.5,60.5C 172.893,61.3184 170.226,61.8184 167.5,62C 164.727,63.6511 161.894,65.1511 159,66.5C 157.898,61.4364 156.398,61.4364 154.5,66.5C 153.253,64.9936 153.253,63.4936 154.5,62C 153.552,61.5172 152.552,61.3505 151.5,61.5C 152.608,63.6951 152.441,65.6951 151,67.5C 150,65.5 149,63.5 148,61.5C 147.184,60.1772 146.017,59.5106 144.5,59.5 Z"/></g>
<g><path style="opacity:1" fill="#19d6da" d="M 80.5,50.5 C 80.1166,52.4085 79.1166,53.9085 77.5,55C 79.6772,55.3449 81.6772,54.8449 83.5,53.5C 85.9982,56.1913 88.1649,55.858 90,52.5C 90.5,53 91,53.5 91.5,54C 89.7397,54.9653 89.4063,56.132 90.5,57.5C 92.1667,56.5 93.5,55.1667 94.5,53.5C 95.4776,53.9767 96.3109,54.6433 97,55.5C 100.068,56.6287 103.402,56.6287 107,55.5C 108.812,55.4934 110.312,56.16 111.5,57.5C 112.521,56.9984 112.688,56.3317 112,55.5C 109.833,54 107.667,52.5 105.5,51C 106.5,50.8333 107.5,50.6667 108.5,50.5C 112.382,52.5136 116.549,53.8469 121,54.5C 123.472,53.6781 125.972,53.0114 128.5,52.5C 129.5,53.1667 130.5,53.8333 131.5,54.5C 121.278,57.2407 111.278,60.574 101.5,64.5C 99.7376,64.3573 98.0709,64.6906 96.5,65.5C 92.5066,62.2395 88.1733,61.7395 83.5,64C 85.5593,65.1855 85.726,66.3521 84,67.5C 80.8719,64.6182 77.3719,63.9515 73.5,65.5C 73.6495,64.448 73.4828,63.448 73,62.5C 72.3333,63.8333 71.6667,63.8333 71,62.5C 70.0614,65.9398 67.8947,68.2731 64.5,69.5C 63.6143,68.675 63.281,67.675 63.5,66.5C 67.8333,62.8333 71.8333,58.8333 75.5,54.5C 76.5846,52.4131 78.2512,51.0798 80.5,50.5 Z"/></g>
<g><path style="opacity:0.875" fill="#90edd0" d="M 175.5,53.5 C 179.049,54.7232 182.049,56.7232 184.5,59.5C 180.928,58.2242 177.928,56.2242 175.5,53.5 Z"/></g>
<g><path style="opacity:0.773" fill="#7cebc7" d="M 139.5,57.5 C 141.698,57.1201 143.365,57.7868 144.5,59.5C 145.6,60.6049 146.267,61.9382 146.5,63.5C 144.142,61.4707 141.808,59.4707 139.5,57.5 Z"/></g>
<g><path style="opacity:1" fill="#08dc9f" d="M 175.5,53.5 C 177.928,56.2242 180.928,58.2242 184.5,59.5C 185.5,59.8333 186.167,60.5 186.5,61.5C 188.236,65.0428 189.569,68.7094 190.5,72.5C 190.44,73.0431 190.107,73.3764 189.5,73.5C 188.167,72.8333 186.833,72.1667 185.5,71.5C 183.827,74.0011 181.993,76.3345 180,78.5C 178.049,76.8629 178.216,75.3629 180.5,74C 179.802,73.0293 179.802,71.8626 180.5,70.5C 180.547,68.9996 179.881,67.9996 178.5,67.5C 177.534,69.396 177.201,71.396 177.5,73.5C 171.778,73.7786 166.111,74.4453 160.5,75.5C 160.5,74.5 160.5,73.5 160.5,72.5C 158.61,72.2965 157.11,72.9632 156,74.5C 155.316,73.2161 155.483,72.0495 156.5,71C 155.953,70.0754 155.287,69.2421 154.5,68.5C 154.006,72.4871 153.839,76.4871 154,80.5C 152.847,77.2889 152.18,73.9555 152,70.5C 151.617,69.944 151.117,69.6107 150.5,69.5C 149.649,67.1184 148.316,65.1184 146.5,63.5C 146.267,61.9382 145.6,60.6049 144.5,59.5C 146.017,59.5106 147.184,60.1772 148,61.5C 149,63.5 150,65.5 151,67.5C 152.441,65.6951 152.608,63.6951 151.5,61.5C 152.552,61.3505 153.552,61.5172 154.5,62C 153.253,63.4936 153.253,64.9936 154.5,66.5C 156.398,61.4364 157.898,61.4364 159,66.5C 161.894,65.1511 164.727,63.6511 167.5,62C 170.226,61.8184 172.893,61.3184 175.5,60.5C 169.982,59.603 164.649,59.603 159.5,60.5C 158.289,59.2798 158.289,58.1131 159.5,57C 161.991,56.7408 164.491,56.9075 167,57.5C 169.261,57.5609 171.261,56.8943 173,55.5C 173.654,56.6956 174.154,56.6956 174.5,55.5C 173.667,55.1667 172.833,54.8333 172,54.5C 169.382,55.4868 166.882,54.9868 164.5,53C 157.833,52.3333 151.167,52.3333 144.5,53C 146.715,53.1705 148.715,53.8372 150.5,55C 149.391,55.6377 148.225,56.1377 147,56.5C 144.02,54.7532 140.853,54.2532 137.5,55C 138.381,55.7083 139.047,56.5416 139.5,57.5C 138.391,57.4431 137.391,57.1098 136.5,56.5C 135.15,55.1765 135.317,54.1765 137,53.5C 149.836,50.906 162.669,50.906 175.5,53.5 Z"/></g>
<g><path style="opacity:0.675" fill="#90edf0" d="M 75.5,54.5 C 71.8333,58.8333 67.8333,62.8333 63.5,66.5C 66.5,61.5 70.5,57.5 75.5,54.5 Z"/></g>
<g><path style="opacity:1" fill="#2bd0dc" d="M 101.5,64.5 C 91.8288,70.3356 82.4955,76.6689 73.5,83.5C 74.2028,79.3952 76.2028,76.0619 79.5,73.5C 80.451,74.3256 81.451,74.4922 82.5,74C 81.3333,72.5 80.1667,71 79,69.5C 75.8443,71.657 73.011,74.157 70.5,77C 68.1929,77.7786 66.1929,77.2786 64.5,75.5C 62.2985,77.0565 62.2985,78.2232 64.5,79C 63.552,79.4828 62.552,79.6495 61.5,79.5C 61.5,80.5 61.5,81.5 61.5,82.5C 60.5,82.5 59.5,82.5 58.5,82.5C 58.5,81.5 58.5,80.5 58.5,79.5C 57.6868,78.3473 56.6868,78.3473 55.5,79.5C 54.0562,81.6079 53.3896,83.9412 53.5,86.5C 52.5,86.5 51.5,86.5 50.5,86.5C 53.3428,78.8015 57.6761,72.1348 63.5,66.5C 63.281,67.675 63.6143,68.675 64.5,69.5C 67.8947,68.2731 70.0614,65.9398 71,62.5C 71.6667,63.8333 72.3333,63.8333 73,62.5C 73.4828,63.448 73.6495,64.448 73.5,65.5C 77.3719,63.9515 80.8719,64.6182 84,67.5C 85.726,66.3521 85.5593,65.1855 83.5,64C 88.1733,61.7395 92.5066,62.2395 96.5,65.5C 98.0709,64.6906 99.7376,64.3573 101.5,64.5 Z"/></g>
<g><path style="opacity:1" fill="#01d7a1" d="M 190.5,72.5 C 192.446,73.0347 193.446,74.368 193.5,76.5C 193.942,81.6912 193.442,86.6912 192,91.5C 187.444,89.9684 182.778,88.6351 178,87.5C 171.959,89.1095 165.792,89.9429 159.5,90C 160.821,91.5445 160.488,92.7112 158.5,93.5C 157.764,90.68 156.098,88.68 153.5,87.5C 152.689,89.3909 151.356,90.7242 149.5,91.5C 149.167,90.6667 148.833,89.8333 148.5,89C 151.319,83.3019 151.985,77.4685 150.5,71.5C 150.5,70.8333 150.5,70.1667 150.5,69.5C 151.117,69.6107 151.617,69.944 152,70.5C 152.18,73.9555 152.847,77.2889 154,80.5C 153.839,76.4871 154.006,72.4871 154.5,68.5C 155.287,69.2421 155.953,70.0754 156.5,71C 155.483,72.0495 155.316,73.2161 156,74.5C 157.11,72.9632 158.61,72.2965 160.5,72.5C 160.5,73.5 160.5,74.5 160.5,75.5C 166.111,74.4453 171.778,73.7786 177.5,73.5C 177.201,71.396 177.534,69.396 178.5,67.5C 179.881,67.9996 180.547,68.9996 180.5,70.5C 179.802,71.8626 179.802,73.0293 180.5,74C 178.216,75.3629 178.049,76.8629 180,78.5C 181.993,76.3345 183.827,74.0011 185.5,71.5C 186.833,72.1667 188.167,72.8333 189.5,73.5C 190.107,73.3764 190.44,73.0431 190.5,72.5 Z"/></g>
<g><path style="opacity:1" fill="#03c8dc" d="M 73.5,83.5 C 70.9759,83.4287 68.9759,84.4287 67.5,86.5C 66.8076,85.9747 66.3076,85.3081 66,84.5C 65.3624,87.0662 64.1957,89.3995 62.5,91.5C 61.9612,89.4951 61.2945,87.4951 60.5,85.5C 59.1397,87.8484 57.4731,88.0151 55.5,86C 56.7315,83.834 57.7315,81.6674 58.5,79.5C 58.5,80.5 58.5,81.5 58.5,82.5C 59.5,82.5 60.5,82.5 61.5,82.5C 61.5,81.5 61.5,80.5 61.5,79.5C 62.552,79.6495 63.552,79.4828 64.5,79C 62.2985,78.2232 62.2985,77.0565 64.5,75.5C 66.1929,77.2786 68.1929,77.7786 70.5,77C 73.011,74.157 75.8443,71.657 79,69.5C 80.1667,71 81.3333,72.5 82.5,74C 81.451,74.4922 80.451,74.3256 79.5,73.5C 76.2028,76.0619 74.2028,79.3952 73.5,83.5 Z"/></g>
<g><path style="opacity:0.361" fill="#92f4d6" d="M 146.5,63.5 C 148.316,65.1184 149.649,67.1184 150.5,69.5C 150.5,70.1667 150.5,70.8333 150.5,71.5C 150.806,74.3854 150.473,77.0521 149.5,79.5C 149.95,73.8637 148.95,68.5303 146.5,63.5 Z"/></g>
<g><path style="opacity:0.565" fill="#87ebce" d="M 186.5,61.5 C 193.439,68.4666 196.772,76.9666 196.5,87C 196.452,89.9188 196.119,92.7521 195.5,95.5C 195.167,95.5 194.833,95.5 194.5,95.5C 194.823,88.9779 194.49,82.6446 193.5,76.5C 193.446,74.368 192.446,73.0347 190.5,72.5C 189.569,68.7094 188.236,65.0428 186.5,61.5 Z"/></g>
<g><path style="opacity:0.71" fill="#9beedb" d="M 149.5,79.5 C 149.946,82.0101 149.28,84.0101 147.5,85.5C 147.875,83.3024 148.542,81.3024 149.5,79.5 Z"/></g>
<g><path style="opacity:1" fill="#0cd0a5" d="M 150.5,71.5 C 151.985,77.4685 151.319,83.3019 148.5,89C 148.833,89.8333 149.167,90.6667 149.5,91.5C 151.356,90.7242 152.689,89.3909 153.5,87.5C 156.098,88.68 157.764,90.68 158.5,93.5C 160.488,92.7112 160.821,91.5445 159.5,90C 165.792,89.9429 171.959,89.1095 178,87.5C 182.778,88.6351 187.444,89.9684 192,91.5C 193.442,86.6912 193.942,81.6912 193.5,76.5C 194.49,82.6446 194.823,88.9779 194.5,95.5C 193.833,98.1667 193.167,100.833 192.5,103.5C 190.331,105.34 188.998,107.674 188.5,110.5C 187.5,110.5 186.5,110.5 185.5,110.5C 185.803,107.412 184.47,105.746 181.5,105.5C 180.521,104.235 179.521,102.901 178.5,101.5C 177.614,102.325 177.281,103.325 177.5,104.5C 166.534,103.401 155.534,103.235 144.5,104C 144,104.5 143.5,105 143,105.5C 142.097,104.299 140.931,103.465 139.5,103C 140.914,101.007 141.914,98.8398 142.5,96.5C 143.11,95.609 143.443,94.609 143.5,93.5C 144.82,90.8599 146.153,88.1932 147.5,85.5C 149.28,84.0101 149.946,82.0101 149.5,79.5C 150.473,77.0521 150.806,74.3854 150.5,71.5 Z"/></g>
<g><path style="opacity:1" fill="#71d2e3" d="M 50.5,86.5 C 50.7947,88.7354 50.4614,90.7354 49.5,92.5C 47.5,96.8333 45.5,101.167 43.5,105.5C 44.4703,98.5814 46.8037,92.248 50.5,86.5 Z"/></g>
<g><path style="opacity:1" fill="#04bfdd" d="M 58.5,79.5 C 57.7315,81.6674 56.7315,83.834 55.5,86C 57.4731,88.0151 59.1397,87.8484 60.5,85.5C 61.2945,87.4951 61.9612,89.4951 62.5,91.5C 61.71,92.6085 61.21,93.9419 61,95.5C 59.8469,93.503 58.3469,93.1696 56.5,94.5C 57.7053,95.9948 57.7053,97.3281 56.5,98.5C 56.3146,96.8042 55.4813,95.4709 54,94.5C 53.3333,97.1667 52.6667,97.1667 52,94.5C 51.8038,96.2861 50.9705,97.6195 49.5,98.5C 48.7691,96.5988 48.7691,94.5988 49.5,92.5C 50.4614,90.7354 50.7947,88.7354 50.5,86.5C 51.5,86.5 52.5,86.5 53.5,86.5C 53.3896,83.9412 54.0562,81.6079 55.5,79.5C 56.6868,78.3473 57.6868,78.3473 58.5,79.5 Z"/></g>
<g><path style="opacity:1" fill="#57cade" d="M 73.5,83.5 C 67.1375,90.8586 60.8042,98.1919 54.5,105.5C 54.1658,102.812 54.8325,100.479 56.5,98.5C 57.7053,97.3281 57.7053,95.9948 56.5,94.5C 58.3469,93.1696 59.8469,93.503 61,95.5C 61.21,93.9419 61.71,92.6085 62.5,91.5C 64.1957,89.3995 65.3624,87.0662 66,84.5C 66.3076,85.3081 66.8076,85.9747 67.5,86.5C 68.9759,84.4287 70.9759,83.4287 73.5,83.5 Z"/></g>
<g><path style="opacity:0.204" fill="#abf4e9" d="M 194.5,95.5 C 194.833,95.5 195.167,95.5 195.5,95.5C 195.277,99.1621 194.277,102.495 192.5,105.5C 192.5,104.833 192.5,104.167 192.5,103.5C 193.167,100.833 193.833,98.1667 194.5,95.5 Z"/></g>
<g><path style="opacity:1" fill="#1fb3da" d="M 49.5,92.5 C 48.7691,94.5988 48.7691,96.5988 49.5,98.5C 50.9705,97.6195 51.8038,96.2861 52,94.5C 52.6667,97.1667 53.3333,97.1667 54,94.5C 55.4813,95.4709 56.3146,96.8042 56.5,98.5C 54.8325,100.479 54.1658,102.812 54.5,105.5C 53.1805,106.942 51.5138,107.608 49.5,107.5C 47.5317,115.114 44.6984,122.447 41,129.5C 40.978,124.182 41.1447,118.849 41.5,113.5C 41.5,113.167 41.5,112.833 41.5,112.5C 42.9238,110.485 43.5905,108.152 43.5,105.5C 45.5,101.167 47.5,96.8333 49.5,92.5 Z"/></g>
<g><path style="opacity:1" fill="#13cba7" d="M 142.5,96.5 C 141.914,98.8398 140.914,101.007 139.5,103C 140.931,103.465 142.097,104.299 143,105.5C 143.5,105 144,104.5 144.5,104C 155.534,103.235 166.534,103.401 177.5,104.5C 177.281,103.325 177.614,102.325 178.5,101.5C 179.521,102.901 180.521,104.235 181.5,105.5C 178.844,107.598 176.511,110.098 174.5,113C 169.833,113.667 165.167,113.667 160.5,113C 160.002,111.842 159.169,111.009 158,110.5C 156.383,115.112 154.05,119.445 151,123.5C 151.437,121.051 151.437,118.717 151,116.5C 150.051,118.093 148.885,119.426 147.5,120.5C 144.936,116.643 141.269,114.976 136.5,115.5C 132.167,115.5 127.833,115.5 123.5,115.5C 122.127,115.657 120.793,115.49 119.5,115C 120.056,114.617 120.389,114.117 120.5,113.5C 124.611,112.939 127.611,110.939 129.5,107.5C 134.744,104.924 139.077,101.257 142.5,96.5 Z"/></g>
<g><path style="opacity:0.906" fill="#85e3cf" d="M 143.5,93.5 C 143.443,94.609 143.11,95.609 142.5,96.5C 139.077,101.257 134.744,104.924 129.5,107.5C 134.5,103.167 139.167,98.5 143.5,93.5 Z"/></g>
<g><path style="opacity:0.388" fill="#9eeee0" d="M 80.5,104.5 C 79.2768,108.049 77.2768,111.049 74.5,113.5C 75.7589,109.975 77.7589,106.975 80.5,104.5 Z"/></g>
<g><path style="opacity:0.412" fill="#abf0e3" d="M 76.5,125.5 C 78.4958,117 81.4958,108.833 85.5,101C 85.3166,99.3164 84.6499,99.1498 83.5,100.5C 84.3733,98.1137 85.8733,96.1137 88,94.5C 88.6667,95.8333 88.6667,97.1667 88,98.5C 84.0444,107.56 80.2111,116.56 76.5,125.5 Z"/></g>
<g><path style="opacity:1" fill="#7edcc5" d="M 129.5,107.5 C 127.611,110.939 124.611,112.939 120.5,113.5C 122.975,110.759 125.975,108.759 129.5,107.5 Z"/></g>
<g><path style="opacity:0.38" fill="#a2e7f6" d="M 43.5,105.5 C 43.5905,108.152 42.9238,110.485 41.5,112.5C 41.4095,109.848 42.0762,107.515 43.5,105.5 Z"/></g>
<g><path style="opacity:0.322" fill="#b0eeef" d="M 192.5,105.5 C 191.434,111.12 189.767,116.453 187.5,121.5C 187.5,120.833 187.5,120.167 187.5,119.5C 188.398,114.465 190.065,109.799 192.5,105.5 Z"/></g>
<g><path style="opacity:1" fill="#04c6aa" d="M 192.5,103.5 C 192.5,104.167 192.5,104.833 192.5,105.5C 190.065,109.799 188.398,114.465 187.5,119.5C 185.938,119.733 184.605,120.4 183.5,121.5C 179.997,123.824 177.997,127.157 177.5,131.5C 176.833,131.833 176.167,132.167 175.5,132.5C 174.167,132.5 172.833,132.5 171.5,132.5C 171.421,131.07 171.754,129.736 172.5,128.5C 171.833,128.167 171.167,127.833 170.5,127.5C 166.566,129.908 163.066,132.908 160,136.5C 159.085,135.672 158.419,134.672 158,133.5C 157.667,133.833 157.333,134.167 157,134.5C 155.015,132.543 153.515,130.21 152.5,127.5C 151.327,129.979 151.327,132.479 152.5,135C 152.37,136.059 151.87,136.892 151,137.5C 150.823,133.644 150.323,129.977 149.5,126.5C 149.068,125.29 148.401,124.29 147.5,123.5C 147.5,122.5 147.5,121.5 147.5,120.5C 148.885,119.426 150.051,118.093 151,116.5C 151.437,118.717 151.437,121.051 151,123.5C 154.05,119.445 156.383,115.112 158,110.5C 159.169,111.009 160.002,111.842 160.5,113C 165.167,113.667 169.833,113.667 174.5,113C 176.511,110.098 178.844,107.598 181.5,105.5C 184.47,105.746 185.803,107.412 185.5,110.5C 186.5,110.5 187.5,110.5 188.5,110.5C 188.998,107.674 190.331,105.34 192.5,103.5 Z"/></g>
<g><path style="opacity:0.341" fill="#ccebe6" d="M 120.5,113.5 C 120.389,114.117 120.056,114.617 119.5,115C 120.793,115.49 122.127,115.657 123.5,115.5C 118.784,117.905 113.784,119.405 108.5,120C 112.155,117.173 116.155,115.007 120.5,113.5 Z"/></g>
<g><path style="opacity:1" fill="#62d3be" d="M 136.5,115.5 C 141.269,114.976 144.936,116.643 147.5,120.5C 147.5,121.5 147.5,122.5 147.5,123.5C 144.722,119.611 141.056,116.945 136.5,115.5 Z"/></g>
<g><path style="opacity:0.788" fill="#93e4d9" d="M 71.5,118.5 C 69.5105,124.485 67.5105,130.485 65.5,136.5C 64.8333,137.5 64.1667,138.5 63.5,139.5C 64.8043,131.906 67.471,124.906 71.5,118.5 Z"/></g>
<g><path style="opacity:1" fill="#1ec3aa" d="M 76.5,125.5 C 73.5286,131.01 72.1953,137.01 72.5,143.5C 71.8501,143.804 71.1835,144.137 70.5,144.5C 68.9134,142.915 68.0801,141.248 68,139.5C 67.6667,140.167 67.3333,140.833 67,141.5C 65.7308,140.095 65.2308,138.429 65.5,136.5C 67.5105,130.485 69.5105,124.485 71.5,118.5C 72.1103,116.566 73.1103,114.899 74.5,113.5C 77.2768,111.049 79.2768,108.049 80.5,104.5C 80.7376,102.596 81.7376,101.262 83.5,100.5C 84.6499,99.1498 85.3166,99.3164 85.5,101C 81.4958,108.833 78.4958,117 76.5,125.5 Z"/></g>
<g><path style="opacity:1" fill="#13b8bb" d="M 183.5,121.5 C 181.508,124.543 179.842,127.876 178.5,131.5C 178.167,131.5 177.833,131.5 177.5,131.5C 177.997,127.157 179.997,123.824 183.5,121.5 Z"/></g>
<g><path style="opacity:1" fill="#3ea6d3" d="M 187.5,119.5 C 187.5,120.167 187.5,120.833 187.5,121.5C 187.5,121.833 187.5,122.167 187.5,122.5C 185.317,125.702 183.317,129.036 181.5,132.5C 180.791,131.596 179.791,131.263 178.5,131.5C 179.842,127.876 181.508,124.543 183.5,121.5C 184.605,120.4 185.938,119.733 187.5,119.5 Z"/></g>
<g><path style="opacity:0.494" fill="#a6ddf0" d="M 54.5,105.5 C 49.3171,114.532 44.6504,123.866 40.5,133.5C 39.2113,126.627 39.5447,119.96 41.5,113.5C 41.1447,118.849 40.978,124.182 41,129.5C 44.6984,122.447 47.5317,115.114 49.5,107.5C 51.5138,107.608 53.1805,106.942 54.5,105.5 Z"/></g>
<g><path style="opacity:0.549" fill="#8de1d9" d="M 147.5,123.5 C 148.401,124.29 149.068,125.29 149.5,126.5C 150.329,132.232 148.995,137.232 145.5,141.5C 148.124,135.686 148.791,129.686 147.5,123.5 Z"/></g>
<g><path style="opacity:0.322" fill="#b9e4fa" d="M 187.5,122.5 C 186.257,127.25 184.257,131.584 181.5,135.5C 181.5,134.5 181.5,133.5 181.5,132.5C 183.317,129.036 185.317,125.702 187.5,122.5 Z"/></g>
<g><path style="opacity:0.349" fill="#a4eee7" d="M 76.5,125.5 C 73.9139,135.523 73.9139,145.523 76.5,155.5C 73.9521,152.004 72.6187,148.004 72.5,143.5C 72.1953,137.01 73.5286,131.01 76.5,125.5 Z"/></g>
<g><path style="opacity:1" fill="#0bbfaf" d="M 149.5,126.5 C 150.323,129.977 150.823,133.644 151,137.5C 151.87,136.892 152.37,136.059 152.5,135C 151.327,132.479 151.327,129.979 152.5,127.5C 153.515,130.21 155.015,132.543 157,134.5C 157.333,134.167 157.667,133.833 158,133.5C 158.419,134.672 159.085,135.672 160,136.5C 163.066,132.908 166.566,129.908 170.5,127.5C 171.167,127.833 171.833,128.167 172.5,128.5C 171.754,129.736 171.421,131.07 171.5,132.5C 172.833,132.5 174.167,132.5 175.5,132.5C 172.361,133.731 170.361,136.065 169.5,139.5C 166.483,140.183 164.483,142.016 163.5,145C 161.423,145.192 159.423,145.692 157.5,146.5C 157.709,147.086 158.043,147.586 158.5,148C 155.329,149.037 152.829,148.204 151,145.5C 149.5,145.667 148.667,146.5 148.5,148C 154.368,152.554 153.701,155.054 146.5,155.5C 146.819,153.25 146.319,151.25 145,149.5C 143.461,150.546 143.295,151.879 144.5,153.5C 142.245,157.535 140.912,157.035 140.5,152C 141.414,150.594 142.08,149.094 142.5,147.5C 142.992,145.181 143.992,143.181 145.5,141.5C 148.995,137.232 150.329,132.232 149.5,126.5 Z"/></g>
<g><path style="opacity:1" fill="#13b6bc" d="M 177.5,131.5 C 177.573,133.027 176.906,134.027 175.5,134.5C 173.304,135.838 171.304,137.505 169.5,139.5C 170.361,136.065 172.361,133.731 175.5,132.5C 176.167,132.167 176.833,131.833 177.5,131.5 Z"/></g>
<g><path style="opacity:0.224" fill="#c4e9fa" d="M 181.5,135.5 C 181.25,137.674 180.25,139.341 178.5,140.5C 178.75,138.326 179.75,136.659 181.5,135.5 Z"/></g>
<g><path style="opacity:1" fill="#15bcb0" d="M 65.5,136.5 C 65.2308,138.429 65.7308,140.095 67,141.5C 67.3333,140.833 67.6667,140.167 68,139.5C 68.0801,141.248 68.9134,142.915 70.5,144.5C 71.1835,144.137 71.8501,143.804 72.5,143.5C 72.6187,148.004 73.9521,152.004 76.5,155.5C 77.3382,155.842 77.6716,156.508 77.5,157.5C 77.5,157.833 77.5,158.167 77.5,158.5C 76.5176,160.406 75.5176,162.406 74.5,164.5C 73.2003,161.568 71.2003,159.234 68.5,157.5C 67.8076,158.025 67.3076,158.692 67,159.5C 66.7104,157.956 66.0437,156.623 65,155.5C 64.5357,156.094 64.369,156.761 64.5,157.5C 64.1667,157.5 63.8333,157.5 63.5,157.5C 63.5,157.167 63.5,156.833 63.5,156.5C 63.5,150.833 63.5,145.167 63.5,139.5C 64.1667,138.5 64.8333,137.5 65.5,136.5 Z"/></g>
<g><path style="opacity:1" fill="#4197de" d="M 177.5,131.5 C 177.833,131.5 178.167,131.5 178.5,131.5C 179.791,131.263 180.791,131.596 181.5,132.5C 181.5,133.5 181.5,134.5 181.5,135.5C 179.75,136.659 178.75,138.326 178.5,140.5C 176.873,142.464 174.873,143.797 172.5,144.5C 172.6,147.108 171.933,149.442 170.5,151.5C 170.167,151.5 169.833,151.5 169.5,151.5C 169.5,150.5 169.5,149.5 169.5,148.5C 165.534,149.044 161.867,150.377 158.5,152.5C 158.81,150.856 159.81,149.856 161.5,149.5C 166.816,145.181 171.483,140.181 175.5,134.5C 176.906,134.027 177.573,133.027 177.5,131.5 Z"/></g>
<g><path style="opacity:1" fill="#28a6ce" d="M 175.5,134.5 C 171.483,140.181 166.816,145.181 161.5,149.5C 164.147,146.236 166.814,142.903 169.5,139.5C 171.304,137.505 173.304,135.838 175.5,134.5 Z"/></g>
<g><path style="opacity:1" fill="#a0c9ee" d="M 178.5,140.5 C 176.6,144.732 173.933,148.399 170.5,151.5C 171.933,149.442 172.6,147.108 172.5,144.5C 174.873,143.797 176.873,142.464 178.5,140.5 Z"/></g>
<g><path style="opacity:0.639" fill="#a2e1dc" d="M 63.5,139.5 C 63.5,145.167 63.5,150.833 63.5,156.5C 60.9411,150.844 60.9411,145.177 63.5,139.5 Z"/></g>
<g><path style="opacity:1" fill="#18b7b5" d="M 169.5,139.5 C 166.814,142.903 164.147,146.236 161.5,149.5C 159.81,149.856 158.81,150.856 158.5,152.5C 154.951,153.723 151.951,155.723 149.5,158.5C 145.326,161.088 140.993,163.421 136.5,165.5C 133.887,166.435 131.221,166.602 128.5,166C 129.696,165.346 129.696,164.846 128.5,164.5C 127.833,165.167 127.167,165.833 126.5,166.5C 125.482,165.807 124.482,165.141 123.5,164.5C 124.899,163.11 126.566,162.11 128.5,161.5C 133.441,159.558 137.108,156.225 139.5,151.5C 139.738,149.596 140.738,148.262 142.5,147.5C 142.08,149.094 141.414,150.594 140.5,152C 140.912,157.035 142.245,157.535 144.5,153.5C 143.295,151.879 143.461,150.546 145,149.5C 146.319,151.25 146.819,153.25 146.5,155.5C 153.701,155.054 154.368,152.554 148.5,148C 148.667,146.5 149.5,145.667 151,145.5C 152.829,148.204 155.329,149.037 158.5,148C 158.043,147.586 157.709,147.086 157.5,146.5C 159.423,145.692 161.423,145.192 163.5,145C 164.483,142.016 166.483,140.183 169.5,139.5 Z"/></g>
<g><path style="opacity:0.655" fill="#8ededc" d="M 139.5,151.5 C 137.108,156.225 133.441,159.558 128.5,161.5C 132.141,158.195 135.808,154.862 139.5,151.5 Z"/></g>
<g><path style="opacity:1" fill="#319dd3" d="M 158.5,152.5 C 156.049,155.277 153.049,157.277 149.5,158.5C 151.951,155.723 154.951,153.723 158.5,152.5 Z"/></g>
<g><path style="opacity:0.314" fill="#a6cdec" d="M 169.5,151.5 C 169.833,151.5 170.167,151.5 170.5,151.5C 169.833,152.833 168.833,153.833 167.5,154.5C 167.427,152.973 168.094,151.973 169.5,151.5 Z"/></g>
<g><path style="opacity:0.498" fill="#b1efed" d="M 77.5,157.5 C 80.1667,159.5 82.5,161.833 84.5,164.5C 81.5726,163.243 79.2393,161.243 77.5,158.5C 77.5,158.167 77.5,157.833 77.5,157.5 Z"/></g>
<g><path style="opacity:1" fill="#3c95d6" d="M 149.5,158.5 C 148.699,160.042 148.366,161.708 148.5,163.5C 146.473,163.338 144.473,163.505 142.5,164C 140.607,166.022 138.273,167.188 135.5,167.5C 135.833,166.833 136.167,166.167 136.5,165.5C 140.993,163.421 145.326,161.088 149.5,158.5 Z"/></g>
<g><path style="opacity:1" fill="#82a8e1" d="M 167.5,154.5 C 166.972,155.721 166.305,156.887 165.5,158C 161.939,161.073 158.272,163.906 154.5,166.5C 155.301,164.958 155.634,163.292 155.5,161.5C 156.978,161.762 158.311,161.429 159.5,160.5C 159.961,155.6 162.627,153.6 167.5,154.5 Z"/></g>
<g><path style="opacity:0.275" fill="#a2e6e4" d="M 63.5,157.5 C 63.8333,157.5 64.1667,157.5 64.5,157.5C 65.4878,160.076 66.4878,162.743 67.5,165.5C 65.2295,163.388 63.8961,160.721 63.5,157.5 Z"/></g>
<g><path style="opacity:0.176" fill="#baf1f1" d="M 84.5,164.5 C 86.0269,164.427 87.0269,165.094 87.5,166.5C 85.9731,166.573 84.9731,165.906 84.5,164.5 Z"/></g>
<g><path style="opacity:0.894" fill="#8cdedf" d="M 123.5,164.5 C 122.365,166.213 120.698,166.88 118.5,166.5C 119.78,165.069 121.447,164.402 123.5,164.5 Z"/></g>
<g><path style="opacity:1" fill="#4f88e0" d="M 169.5,151.5 C 168.094,151.973 167.427,152.973 167.5,154.5C 162.627,153.6 159.961,155.6 159.5,160.5C 158.311,161.429 156.978,161.762 155.5,161.5C 155.634,163.292 155.301,164.958 154.5,166.5C 154.5,167.167 154.167,167.5 153.5,167.5C 151.973,167.427 150.973,168.094 150.5,169.5C 148.596,169.738 147.262,170.738 146.5,172.5C 145.5,172.5 144.5,172.5 143.5,172.5C 143.5,171.5 143.5,170.5 143.5,169.5C 139.54,167.908 135.873,168.408 132.5,171C 135.028,171.669 135.028,172.502 132.5,173.5C 129.549,172.643 126.549,172.643 123.5,173.5C 123.5,173.167 123.5,172.833 123.5,172.5C 124.708,171.766 126.041,171.433 127.5,171.5C 130.198,171.155 132.198,169.822 133.5,167.5C 134.167,167.5 134.833,167.5 135.5,167.5C 138.273,167.188 140.607,166.022 142.5,164C 144.473,163.505 146.473,163.338 148.5,163.5C 148.366,161.708 148.699,160.042 149.5,158.5C 153.049,157.277 156.049,155.277 158.5,152.5C 161.867,150.377 165.534,149.044 169.5,148.5C 169.5,149.5 169.5,150.5 169.5,151.5 Z"/></g>
<g><path style="opacity:1" fill="#12b4b2" d="M 77.5,158.5 C 79.2393,161.243 81.5726,163.243 84.5,164.5C 84.9731,165.906 85.9731,166.573 87.5,166.5C 90.0791,168.025 92.7458,169.359 95.5,170.5C 94.9094,171.151 94.2427,171.818 93.5,172.5C 90.1981,173.329 86.8648,173.996 83.5,174.5C 82.3527,174.182 81.5194,173.516 81,172.5C 79.3005,173.406 77.4672,173.739 75.5,173.5C 74.7659,172.292 74.4326,170.959 74.5,169.5C 71.6967,169.039 69.3634,167.705 67.5,165.5C 66.4878,162.743 65.4878,160.076 64.5,157.5C 64.369,156.761 64.5357,156.094 65,155.5C 66.0437,156.623 66.7104,157.956 67,159.5C 67.3076,158.692 67.8076,158.025 68.5,157.5C 71.2003,159.234 73.2003,161.568 74.5,164.5C 75.5176,162.406 76.5176,160.406 77.5,158.5 Z"/></g>
<g><path style="opacity:0.047" fill="#ccd6f7" d="M 153.5,167.5 C 153.027,168.906 152.027,169.573 150.5,169.5C 150.973,168.094 151.973,167.427 153.5,167.5 Z"/></g>
<g><path style="opacity:0.275" fill="#9ae8ea" d="M 87.5,166.5 C 91.9314,167.732 96.4314,168.732 101,169.5C 106.934,168.947 112.768,167.947 118.5,166.5C 117.319,168.067 115.653,168.901 113.5,169C 107.545,170.072 101.545,170.572 95.5,170.5C 92.7458,169.359 90.0791,168.025 87.5,166.5 Z"/></g>
<g><path style="opacity:1" fill="#329bcb" d="M 133.5,167.5 C 132.198,169.822 130.198,171.155 127.5,171.5C 128.733,169.204 130.733,167.87 133.5,167.5 Z"/></g>
<g><path style="opacity:0.953" fill="#77d1d4" d="M 67.5,165.5 C 69.3634,167.705 71.6967,169.039 74.5,169.5C 74.4326,170.959 74.7659,172.292 75.5,173.5C 71.8333,171.833 69.1667,169.167 67.5,165.5 Z"/></g>
<g><path style="opacity:0.106" fill="#cddbf6" d="M 150.5,169.5 C 149.738,171.262 148.404,172.262 146.5,172.5C 147.262,170.738 148.596,169.738 150.5,169.5 Z"/></g>
<g><path style="opacity:1" fill="#16b1b5" d="M 123.5,164.5 C 124.482,165.141 125.482,165.807 126.5,166.5C 127.167,165.833 127.833,165.167 128.5,164.5C 129.696,164.846 129.696,165.346 128.5,166C 131.221,166.602 133.887,166.435 136.5,165.5C 136.167,166.167 135.833,166.833 135.5,167.5C 134.833,167.5 134.167,167.5 133.5,167.5C 130.733,167.87 128.733,169.204 127.5,171.5C 126.041,171.433 124.708,171.766 123.5,172.5C 120.482,172.335 117.482,172.502 114.5,173C 114.833,173.333 115.167,173.667 115.5,174C 111.187,174.568 107.187,175.735 103.5,177.5C 103.167,177.5 102.833,177.5 102.5,177.5C 97.2032,178.275 91.8699,178.608 86.5,178.5C 82.376,177.601 78.7093,175.934 75.5,173.5C 77.4672,173.739 79.3005,173.406 81,172.5C 81.5194,173.516 82.3527,174.182 83.5,174.5C 86.8648,173.996 90.1981,173.329 93.5,172.5C 94.2427,171.818 94.9094,171.151 95.5,170.5C 101.545,170.572 107.545,170.072 113.5,169C 115.653,168.901 117.319,168.067 118.5,166.5C 120.698,166.88 122.365,166.213 123.5,164.5 Z"/></g>
<g><path style="opacity:1" fill="#1aa7c0" d="M 123.5,172.5 C 123.5,172.833 123.5,173.167 123.5,173.5C 123.167,173.5 122.833,173.5 122.5,173.5C 118.673,174.267 115.006,175.267 111.5,176.5C 109.052,177.473 106.385,177.806 103.5,177.5C 107.187,175.735 111.187,174.568 115.5,174C 115.167,173.667 114.833,173.333 114.5,173C 117.482,172.502 120.482,172.335 123.5,172.5 Z"/></g>
<g><path style="opacity:0.859" fill="#adbded" d="M 143.5,172.5 C 144.5,172.5 145.5,172.5 146.5,172.5C 143.669,174.417 140.669,176.083 137.5,177.5C 139.091,175.367 141.091,173.701 143.5,172.5 Z"/></g>
<g><path style="opacity:1" fill="#3f90da" d="M 122.5,173.5 C 119.373,176.055 115.706,177.055 111.5,176.5C 115.006,175.267 118.673,174.267 122.5,173.5 Z"/></g>
<g><path style="opacity:0.898" fill="#a6b8e3" d="M 136.5,177.5 C 135.365,179.213 133.698,179.88 131.5,179.5C 132.635,177.787 134.302,177.12 136.5,177.5 Z"/></g>
<g><path style="opacity:0.075" fill="#e9e9f7" d="M 72.5,179.5 C 70.2646,179.205 68.2646,179.539 66.5,180.5C 65.7109,180.217 65.0442,179.717 64.5,179C 67.367,178.199 70.0336,178.366 72.5,179.5 Z"/></g>
<g><path style="opacity:0.929" fill="#50b4d5" d="M 102.5,177.5 C 102.082,178.222 101.416,178.722 100.5,179C 97.1832,179.498 93.8499,179.665 90.5,179.5C 89.1667,179.5 87.8333,179.5 86.5,179.5C 86.5,179.167 86.5,178.833 86.5,178.5C 91.8699,178.608 97.2032,178.275 102.5,177.5 Z"/></g>
<g><path style="opacity:1" fill="#5a7ee2" d="M 143.5,172.5 C 141.091,173.701 139.091,175.367 137.5,177.5C 137.167,177.5 136.833,177.5 136.5,177.5C 134.302,177.12 132.635,177.787 131.5,179.5C 131.158,180.338 130.492,180.672 129.5,180.5C 126.918,180.025 124.918,180.692 123.5,182.5C 123.167,182.5 122.833,182.5 122.5,182.5C 113.674,183.207 104.841,183.874 96,184.5C 90.1585,184.219 84.3252,183.886 78.5,183.5C 77.5707,182.685 76.5707,181.852 75.5,181C 80.6835,180.826 85.6835,180.326 90.5,179.5C 93.8499,179.665 97.1832,179.498 100.5,179C 101.416,178.722 102.082,178.222 102.5,177.5C 102.833,177.5 103.167,177.5 103.5,177.5C 106.385,177.806 109.052,177.473 111.5,176.5C 115.706,177.055 119.373,176.055 122.5,173.5C 122.833,173.5 123.167,173.5 123.5,173.5C 126.549,172.643 129.549,172.643 132.5,173.5C 135.028,172.502 135.028,171.669 132.5,171C 135.873,168.408 139.54,167.908 143.5,169.5C 143.5,170.5 143.5,171.5 143.5,172.5 Z"/></g>
<g><path style="opacity:0.839" fill="#8da3e0" d="M 66.5,180.5 C 68.2646,179.539 70.2646,179.205 72.5,179.5C 77.1667,179.5 81.8333,179.5 86.5,179.5C 87.8333,179.5 89.1667,179.5 90.5,179.5C 85.6835,180.326 80.6835,180.826 75.5,181C 76.5707,181.852 77.5707,182.685 78.5,183.5C 74.3219,183.122 70.3219,182.122 66.5,180.5 Z"/></g>
<g><path style="opacity:0.918" fill="#adb7eb" d="M 129.5,180.5 C 127.786,181.738 125.786,182.405 123.5,182.5C 124.918,180.692 126.918,180.025 129.5,180.5 Z"/></g>
<g><path style="opacity:0.937" fill="#9baae5" d="M 122.5,182.5 C 107.9,187.163 93.2332,187.496 78.5,183.5C 84.3252,183.886 90.1585,184.219 96,184.5C 104.841,183.874 113.674,183.207 122.5,182.5 Z"/></g>
<g><path style="opacity:0.492" fill="#96f3d6" d="M 116.5,197.5 C 111.843,196.259 107.177,196.259 102.5,197.5C 104.462,195.983 106.795,195.316 109.5,195.5C 112.205,195.316 114.538,195.983 116.5,197.5 Z"/></g>
<g><path style="opacity:0.546" fill="#82e3c9" d="M 53.5,197.5 C 53.5,197.167 53.5,196.833 53.5,196.5C 59.1667,196.5 64.8333,196.5 70.5,196.5C 70.8016,199.059 70.4682,201.393 69.5,203.5C 69.5,201.5 69.5,199.5 69.5,197.5C 64.1667,197.5 58.8333,197.5 53.5,197.5 Z"/></g>
<g><path style="opacity:0.545" fill="#90e6cf" d="M 159.5,198.5 C 146.913,197.52 134.246,197.187 121.5,197.5C 121.719,198.675 121.386,199.675 120.5,200.5C 119.893,200.376 119.56,200.043 119.5,199.5C 120.404,198.791 120.737,197.791 120.5,196.5C 133.876,195.852 146.876,196.519 159.5,198.5 Z"/></g>
<g><path style="opacity:1" fill="#1cd1a1" d="M 169.5,197.5 C 177.833,197.5 186.167,197.5 194.5,197.5C 194.5,199.5 194.5,201.5 194.5,203.5C 190.833,203.5 187.167,203.5 183.5,203.5C 183.157,205.483 183.824,206.817 185.5,207.5C 185.059,212.436 183.559,212.77 181,208.5C 180.241,210.063 179.074,211.063 177.5,211.5C 177.5,208.167 177.5,204.833 177.5,201.5C 176.5,201.5 175.5,201.5 174.5,201.5C 174.5,203.5 174.5,205.5 174.5,207.5C 173.599,208.29 172.932,209.29 172.5,210.5C 169.129,211.805 167.796,210.471 168.5,206.5C 168.704,203.482 169.037,200.482 169.5,197.5 Z"/></g>
<g><path style="opacity:0.631" fill="#95ebd7" d="M 102.5,197.5 C 100.079,200.244 97.7454,202.91 95.5,205.5C 96.4308,201.571 98.7641,198.905 102.5,197.5 Z"/></g>
<g><path style="opacity:0.6" fill="#a9f2de" d="M 159.5,198.5 C 160.458,200.302 161.125,202.302 161.5,204.5C 161.167,204.5 160.833,204.5 160.5,204.5C 159.659,202.621 159.325,200.621 159.5,198.5 Z"/></g>
<g><path style="opacity:0.243" fill="#b6f7e8" d="M 70.5,196.5 C 71.4731,198.948 71.8064,201.615 71.5,204.5C 67.774,204.177 64.1073,204.511 60.5,205.5C 63.6417,206.167 66.6417,206.834 69.5,207.5C 66.1667,207.5 62.8333,207.5 59.5,207.5C 59.5,206.167 59.5,204.833 59.5,203.5C 62.8333,203.5 66.1667,203.5 69.5,203.5C 70.4682,201.393 70.8016,199.059 70.5,196.5 Z"/></g>
<g><path style="opacity:0.508" fill="#83e5d1" d="M 177.5,211.5 C 177.5,215.167 177.5,218.833 177.5,222.5C 177.5,223.167 177.5,223.833 177.5,224.5C 176.512,219.36 176.179,214.026 176.5,208.5C 176.657,207.127 176.49,205.793 176,204.5C 175.768,205.737 175.268,206.737 174.5,207.5C 174.5,205.5 174.5,203.5 174.5,201.5C 175.5,201.5 176.5,201.5 177.5,201.5C 177.5,204.833 177.5,208.167 177.5,211.5 Z"/></g>
<g><path style="opacity:1" fill="#78e1c8" d="M 79.5,197.5 C 79.3456,201.802 78.3456,205.802 76.5,209.5C 75.8571,211.076 74.8571,212.41 73.5,213.5C 74.929,207.871 76.929,202.537 79.5,197.5 Z"/></g>
<g><path style="opacity:1" fill="#1dd2a3" d="M 116.5,197.5 C 118.027,197.427 119.027,198.094 119.5,199.5C 119.56,200.043 119.893,200.376 120.5,200.5C 121.386,199.675 121.719,198.675 121.5,197.5C 134.246,197.187 146.913,197.52 159.5,198.5C 159.325,200.621 159.659,202.621 160.5,204.5C 160.5,205.5 160.5,206.5 160.5,207.5C 158.876,207.36 157.71,208.027 157,209.5C 156.497,205.827 154.997,202.827 152.5,200.5C 151.883,200.389 151.383,200.056 151,199.5C 150.503,202.146 150.336,204.813 150.5,207.5C 149.806,210.421 148.973,213.421 148,216.5C 145.883,212.29 144.383,207.957 143.5,203.5C 140.833,203.5 138.167,203.5 135.5,203.5C 135.5,204.833 135.5,206.167 135.5,207.5C 133.61,207.297 132.11,207.963 131,209.5C 130.722,208.584 130.222,207.918 129.5,207.5C 129.5,206.167 129.5,204.833 129.5,203.5C 125.32,203.189 121.32,203.855 117.5,205.5C 115.666,204.246 113.666,203.579 111.5,203.5C 109.32,202.206 107.32,202.539 105.5,204.5C 104.167,204.5 102.833,204.5 101.5,204.5C 101.5,205.5 101.5,206.5 101.5,207.5C 99.3146,207.704 97.3146,208.37 95.5,209.5C 95.5,208.167 95.5,206.833 95.5,205.5C 97.7454,202.91 100.079,200.244 102.5,197.5C 107.177,196.259 111.843,196.259 116.5,197.5 Z"/></g>
<g><path style="opacity:0.2" fill="#a6f6e4" d="M 111.5,203.5 C 109.297,203.604 107.297,204.27 105.5,205.5C 105.5,205.167 105.5,204.833 105.5,204.5C 107.32,202.539 109.32,202.206 111.5,203.5 Z"/></g>
<g><path style="opacity:1" fill="#16d2a0" d="M 53.5,197.5 C 58.8333,197.5 64.1667,197.5 69.5,197.5C 69.5,199.5 69.5,201.5 69.5,203.5C 66.1667,203.5 62.8333,203.5 59.5,203.5C 57.9328,204.681 57.0995,206.347 57,208.5C 56.2588,209.641 55.4255,209.641 54.5,208.5C 53.5108,204.893 53.1774,201.226 53.5,197.5 Z"/></g>
<g><path style="opacity:0.694" fill="#84e4cd" d="M 169.5,197.5 C 169.037,200.482 168.704,203.482 168.5,206.5C 166.808,208.514 165.475,210.848 164.5,213.5C 163.702,213.043 163.369,212.376 163.5,211.5C 165.695,206.915 167.695,202.249 169.5,197.5 Z"/></g>
<g><path style="opacity:0.094" fill="#b2fef2" d="M 53.5,196.5 C 53.5,196.833 53.5,197.167 53.5,197.5C 52.6739,202.316 52.1739,207.316 52,212.5C 51.0565,211.737 50.5565,210.737 50.5,209.5C 51.8242,206.814 51.8242,204.147 50.5,201.5C 50.9724,199.469 51.9724,197.802 53.5,196.5 Z"/></g>
<g><path style="opacity:1" fill="#13cfa4" d="M 79.5,197.5 C 82.1873,197.336 84.854,197.503 87.5,198C 88.7318,200.766 89.7318,203.599 90.5,206.5C 90.3389,209.528 91.0056,212.361 92.5,215C 91.8979,216.563 91.0646,216.396 90,214.5C 89.5172,213.552 89.3505,212.552 89.5,211.5C 88.1667,211.5 86.8333,211.5 85.5,211.5C 85.5,209.5 84.5,208.5 82.5,208.5C 80.5,208.833 78.5,209.167 76.5,209.5C 78.3456,205.802 79.3456,201.802 79.5,197.5 Z"/></g>
<g><path style="opacity:0.604" fill="#a6f0df" d="M 161.5,205.5 C 163.074,207.102 163.741,209.102 163.5,211.5C 161.926,209.898 161.259,207.898 161.5,205.5 Z"/></g>
<g><path style="opacity:1" fill="#18c7a8" d="M 185.5,207.5 C 188.167,207.5 190.833,207.5 193.5,207.5C 193.5,209.5 193.5,211.5 193.5,213.5C 190.167,213.5 186.833,213.5 183.5,213.5C 183.5,214.833 183.5,216.167 183.5,217.5C 182.292,218.234 180.959,218.567 179.5,218.5C 179.843,220.483 179.176,221.817 177.5,222.5C 177.5,218.833 177.5,215.167 177.5,211.5C 179.074,211.063 180.241,210.063 181,208.5C 183.559,212.77 185.059,212.436 185.5,207.5 Z"/></g>
<g><path style="opacity:0.098" fill="#b8faef" d="M 105.5,205.5 C 103.732,208.162 103.065,211.162 103.5,214.5C 102.366,212.034 102.199,209.367 103,206.5C 103.671,205.748 104.504,205.414 105.5,205.5 Z"/></g>
<g><path style="opacity:0.42" fill="#9deee0" d="M 79.5,197.5 C 82.3035,196.362 85.3035,196.195 88.5,197C 90.5244,201.403 92.3577,205.903 94,210.5C 94.1981,208.618 94.6981,206.952 95.5,205.5C 95.5,206.833 95.5,208.167 95.5,209.5C 95.9828,214.123 97.3161,218.456 99.5,222.5C 98.596,223.209 98.2627,224.209 98.5,225.5C 95.4281,225.817 92.4281,225.484 89.5,224.5C 88.7542,223.264 88.4208,221.93 88.5,220.5C 90.4603,224.161 93.4603,225.161 97.5,223.5C 94.9453,217.814 92.612,212.147 90.5,206.5C 89.7318,203.599 88.7318,200.766 87.5,198C 84.854,197.503 82.1873,197.336 79.5,197.5 Z"/></g>
<g><path style="opacity:1" fill="#16c4aa" d="M 90.5,206.5 C 92.612,212.147 94.9453,217.814 97.5,223.5C 93.4603,225.161 90.4603,224.161 88.5,220.5C 88.3893,219.883 88.056,219.383 87.5,219C 82.8291,218.462 78.1624,217.962 73.5,217.5C 73.5,216.167 73.5,214.833 73.5,213.5C 74.8571,212.41 75.8571,211.076 76.5,209.5C 78.5,209.167 80.5,208.833 82.5,208.5C 81.962,210.117 81.6287,211.784 81.5,213.5C 83.4832,213.843 84.8166,213.176 85.5,211.5C 86.8333,211.5 88.1667,211.5 89.5,211.5C 89.3505,212.552 89.5172,213.552 90,214.5C 91.0646,216.396 91.8979,216.563 92.5,215C 91.0056,212.361 90.3389,209.528 90.5,206.5 Z"/></g>
<g><path style="opacity:0.455" fill="#a3f3e5" d="M 82.5,208.5 C 84.5,208.5 85.5,209.5 85.5,211.5C 84.8166,213.176 83.4832,213.843 81.5,213.5C 81.6287,211.784 81.962,210.117 82.5,208.5 Z"/></g>
<g><path style="opacity:1" fill="#1ac7aa" d="M 152.5,200.5 C 154.997,202.827 156.497,205.827 157,209.5C 157.71,208.027 158.876,207.36 160.5,207.5C 160.5,206.5 160.5,205.5 160.5,204.5C 160.833,204.5 161.167,204.5 161.5,204.5C 161.5,204.833 161.5,205.167 161.5,205.5C 161.259,207.898 161.926,209.898 163.5,211.5C 163.369,212.376 163.702,213.043 164.5,213.5C 165.475,210.848 166.808,208.514 168.5,206.5C 167.796,210.471 169.129,211.805 172.5,210.5C 171.976,212.306 171.309,213.972 170.5,215.5C 169.178,215.67 168.011,215.337 167,214.5C 165.504,216.411 164.171,218.411 163,220.5C 161.615,219.449 160.615,218.116 160,216.5C 159.617,217.056 159.117,217.389 158.5,217.5C 156.362,211.984 154.362,206.318 152.5,200.5 Z"/></g>
<g><path style="opacity:0.173" fill="#aff3e5" d="M 174.5,207.5 C 173.739,211.784 172.405,215.784 170.5,219.5C 170.5,218.167 170.5,216.833 170.5,215.5C 171.309,213.972 171.976,212.306 172.5,210.5C 172.932,209.29 173.599,208.29 174.5,207.5 Z"/></g>
<g><path style="opacity:1" fill="#1ec9a8" d="M 31.5,197.5 C 31.5,201.5 31.5,205.5 31.5,209.5C 32.9305,209.579 34.2638,209.246 35.5,208.5C 36.1698,206.709 36.8365,205.042 37.5,203.5C 37.5,204.833 37.5,206.167 37.5,207.5C 39.8333,207.5 42.1667,207.5 44.5,207.5C 44.7373,206.209 44.404,205.209 43.5,204.5C 43.5,204.167 43.5,203.833 43.5,203.5C 44.9986,204.678 45.9986,206.345 46.5,208.5C 49.0934,206.929 50.0934,204.596 49.5,201.5C 49.8333,201.5 50.1667,201.5 50.5,201.5C 51.8242,204.147 51.8242,206.814 50.5,209.5C 50.5565,210.737 51.0565,211.737 52,212.5C 52.1739,207.316 52.6739,202.316 53.5,197.5C 53.1774,201.226 53.5108,204.893 54.5,208.5C 55.4255,209.641 56.2588,209.641 57,208.5C 57.0995,206.347 57.9328,204.681 59.5,203.5C 59.5,204.833 59.5,206.167 59.5,207.5C 62.8333,207.5 66.1667,207.5 69.5,207.5C 69.5,209.5 69.5,211.5 69.5,213.5C 65.9581,213.187 62.6248,213.521 59.5,214.5C 58.8007,216.556 57.8007,218.556 56.5,220.5C 54.9309,219.286 54.0976,217.619 54,215.5C 51.9367,219.155 50.1034,219.155 48.5,215.5C 47.7189,216.729 47.2189,218.062 47,219.5C 46.2828,218.956 45.7828,218.289 45.5,217.5C 45.67,216.178 45.3366,215.011 44.5,214C 42.1902,213.503 39.8568,213.337 37.5,213.5C 36.5386,215.265 36.2053,217.265 36.5,219.5C 34.7988,219.966 33.2988,219.966 32,219.5C 31.79,221.058 31.29,222.391 30.5,223.5C 30.1736,214.651 30.507,205.984 31.5,197.5 Z M 43.5,204.5 C 43.2089,205.649 42.3756,206.316 41,206.5C 40.1667,206.167 39.3333,205.833 38.5,205.5C 40.0453,204.548 41.712,204.215 43.5,204.5 Z M 44.5,217.5 C 42.5,217.5 40.5,217.5 38.5,217.5C 38.5,216.5 38.5,215.5 38.5,214.5C 40.1992,214.34 41.8659,214.506 43.5,215C 44.2524,215.671 44.5858,216.504 44.5,217.5 Z"/></g>
<g><path style="opacity:1" fill="#0bd3a0" d="M 31.5,197.5 C 36.1785,197.334 40.8452,197.501 45.5,198C 47.3237,198.66 48.657,199.827 49.5,201.5C 50.0934,204.596 49.0934,206.929 46.5,208.5C 45.9986,206.345 44.9986,204.678 43.5,203.5C 41.5,203.5 39.5,203.5 37.5,203.5C 36.8365,205.042 36.1698,206.709 35.5,208.5C 34.2638,209.246 32.9305,209.579 31.5,209.5C 31.5,205.5 31.5,201.5 31.5,197.5 Z M 43.5,204.5 C 41.712,204.215 40.0453,204.548 38.5,205.5C 39.3333,205.833 40.1667,206.167 41,206.5C 42.3756,206.316 43.2089,205.649 43.5,204.5 Z"/></g>
<g><path style="opacity:0.024" fill="#c2fcf4" d="M 37.5,203.5 C 39.5,203.5 41.5,203.5 43.5,203.5C 43.5,203.833 43.5,204.167 43.5,204.5C 44.404,205.209 44.7373,206.209 44.5,207.5C 42.1667,207.5 39.8333,207.5 37.5,207.5C 37.5,206.167 37.5,204.833 37.5,203.5 Z M 43.5,204.5 C 41.712,204.215 40.0453,204.548 38.5,205.5C 39.3333,205.833 40.1667,206.167 41,206.5C 42.3756,206.316 43.2089,205.649 43.5,204.5 Z"/></g>
<g><path style="opacity:0.301" fill="#b4f4e9" d="M 152.5,200.5 C 154.362,206.318 156.362,211.984 158.5,217.5C 159.219,219.764 159.552,222.097 159.5,224.5C 156.735,217.712 154.235,210.712 152,203.5C 151.5,210.826 151.334,218.159 151.5,225.5C 148.5,225.5 145.5,225.5 142.5,225.5C 142.5,218.5 142.5,211.5 142.5,204.5C 140.5,204.5 138.5,204.5 136.5,204.5C 136.5,211.5 136.5,218.5 136.5,225.5C 133.5,225.5 130.5,225.5 127.5,225.5C 127.5,218.5 127.5,211.5 127.5,204.5C 128.167,211.167 128.833,217.833 129.5,224.5C 131.5,224.5 133.5,224.5 135.5,224.5C 135.5,218.833 135.5,213.167 135.5,207.5C 135.5,206.167 135.5,204.833 135.5,203.5C 138.167,203.5 140.833,203.5 143.5,203.5C 143.5,210.5 143.5,217.5 143.5,224.5C 145.833,224.5 148.167,224.5 150.5,224.5C 150.5,218.833 150.5,213.167 150.5,207.5C 150.336,204.813 150.503,202.146 151,199.5C 151.383,200.056 151.883,200.389 152.5,200.5 Z"/></g>
<g><path style="opacity:0.027" fill="#e3fefe" d="M 176.5,208.5 C 176.179,214.026 176.512,219.36 177.5,224.5C 177.5,224.833 177.5,225.167 177.5,225.5C 176.186,223.085 175.519,220.252 175.5,217C 175.502,213.979 175.836,211.146 176.5,208.5 Z"/></g>
<g><path style="opacity:0.196" fill="#abf2ec" d="M 37.5,213.5 C 39.8568,213.337 42.1902,213.503 44.5,214C 45.3366,215.011 45.67,216.178 45.5,217.5C 45.1667,217.5 44.8333,217.5 44.5,217.5C 42.3926,218.468 40.0593,218.802 37.5,218.5C 37.5,216.833 37.5,215.167 37.5,213.5 Z M 44.5,217.5 C 44.5858,216.504 44.2524,215.671 43.5,215C 41.8659,214.506 40.1992,214.34 38.5,214.5C 38.5,215.5 38.5,216.5 38.5,217.5C 40.5,217.5 42.5,217.5 44.5,217.5 Z"/></g>
<g><path style="opacity:0.231" fill="#acf1e8" d="M 69.5,207.5 C 70.4682,209.607 70.8016,211.941 70.5,214.5C 67.1667,214.5 63.8333,214.5 60.5,214.5C 60.5,215.5 60.5,216.5 60.5,217.5C 64.1817,217.665 67.8484,217.499 71.5,217C 72.0848,215.698 72.7515,214.531 73.5,213.5C 73.5,214.833 73.5,216.167 73.5,217.5C 72.5416,217.953 71.7083,218.619 71,219.5C 67.27,218.54 63.4367,218.207 59.5,218.5C 59.5,217.167 59.5,215.833 59.5,214.5C 62.6248,213.521 65.9581,213.187 69.5,213.5C 69.5,211.5 69.5,209.5 69.5,207.5 Z"/></g>
<g><path style="opacity:0.51" fill="#9fe3da" d="M 121.5,220.5 C 121.64,218.876 120.973,217.71 119.5,217C 117.455,216.51 115.455,216.677 113.5,217.5C 114.406,215.086 116.072,214.253 118.5,215C 120.081,215.707 121.581,216.54 123,217.5C 123.585,218.998 123.085,219.998 121.5,220.5 Z"/></g>
<g><path style="opacity:0.925" fill="#86dfd3" d="M 103.5,214.5 C 106.193,217.857 109.526,218.857 113.5,217.5C 112.848,218.725 111.681,219.392 110,219.5C 106.515,219.512 104.348,217.845 103.5,214.5 Z"/></g>
<g><path style="opacity:0.633" fill="#84dece" d="M 111.5,203.5 C 113.666,203.579 115.666,204.246 117.5,205.5C 121.32,203.855 125.32,203.189 129.5,203.5C 129.5,204.833 129.5,206.167 129.5,207.5C 129.5,213.167 129.5,218.833 129.5,224.5C 128.833,217.833 128.167,211.167 127.5,204.5C 123.721,204.47 120.221,205.47 117,207.5C 114.995,206.318 113.162,204.985 111.5,203.5 Z"/></g>
<g><path style="opacity:1" fill="#23c2ab" d="M 105.5,204.5 C 105.5,204.833 105.5,205.167 105.5,205.5C 104.504,205.414 103.671,205.748 103,206.5C 102.199,209.367 102.366,212.034 103.5,214.5C 104.348,217.845 106.515,219.512 110,219.5C 111.681,219.392 112.848,218.725 113.5,217.5C 115.455,216.677 117.455,216.51 119.5,217C 120.973,217.71 121.64,218.876 121.5,220.5C 120.415,222.587 118.749,223.92 116.5,224.5C 111.843,225.741 107.177,225.741 102.5,224.5C 102.027,223.094 101.027,222.427 99.5,222.5C 97.3161,218.456 95.9828,214.123 95.5,209.5C 97.3146,208.37 99.3146,207.704 101.5,207.5C 101.5,206.5 101.5,205.5 101.5,204.5C 102.833,204.5 104.167,204.5 105.5,204.5 Z"/></g>
<g><path style="opacity:1" fill="#2cc1b0" d="M 37.5,213.5 C 37.5,215.167 37.5,216.833 37.5,218.5C 40.0593,218.802 42.3926,218.468 44.5,217.5C 44.8333,217.5 45.1667,217.5 45.5,217.5C 45.7828,218.289 46.2828,218.956 47,219.5C 47.2189,218.062 47.7189,216.729 48.5,215.5C 50.1034,219.155 51.9367,219.155 54,215.5C 54.0976,217.619 54.9309,219.286 56.5,220.5C 57.8007,218.556 58.8007,216.556 59.5,214.5C 59.5,215.833 59.5,217.167 59.5,218.5C 63.4367,218.207 67.27,218.54 71,219.5C 71.7083,218.619 72.5416,217.953 73.5,217.5C 78.1624,217.962 82.8291,218.462 87.5,219C 88.056,219.383 88.3893,219.883 88.5,220.5C 85.5,220.5 82.5,220.5 79.5,220.5C 78.6091,221.261 77.9424,222.261 77.5,223.5C 69.1932,224.498 60.8599,224.831 52.5,224.5C 52.314,219.69 51.314,219.357 49.5,223.5C 49.1583,224.338 48.4916,224.672 47.5,224.5C 41.642,224.822 35.9753,224.489 30.5,223.5C 31.29,222.391 31.79,221.058 32,219.5C 33.2988,219.966 34.7988,219.966 36.5,219.5C 36.2053,217.265 36.5386,215.265 37.5,213.5 Z M 44.5,217.5 C 44.5858,216.504 44.2524,215.671 43.5,215C 41.8659,214.506 40.1992,214.34 38.5,214.5C 38.5,215.5 38.5,216.5 38.5,217.5C 40.5,217.5 42.5,217.5 44.5,217.5 Z"/></g>
<g><path style="opacity:1" fill="#1fbaab" d="M 183.5,217.5 C 186.962,218.482 190.629,218.815 194.5,218.5C 194.5,220.5 194.5,222.5 194.5,224.5C 188.833,224.5 183.167,224.5 177.5,224.5C 177.5,223.833 177.5,223.167 177.5,222.5C 179.176,221.817 179.843,220.483 179.5,218.5C 180.959,218.567 182.292,218.234 183.5,217.5 Z"/></g>
<g><path style="opacity:1" fill="#20bcaa" d="M 170.5,215.5 C 170.5,216.833 170.5,218.167 170.5,219.5C 168.787,220.635 168.12,222.302 168.5,224.5C 165.5,224.5 162.5,224.5 159.5,224.5C 159.552,222.097 159.219,219.764 158.5,217.5C 159.117,217.389 159.617,217.056 160,216.5C 160.615,218.116 161.615,219.449 163,220.5C 164.171,218.411 165.504,216.411 167,214.5C 168.011,215.337 169.178,215.67 170.5,215.5 Z"/></g>
<g><path style="opacity:1" fill="#19c1a8" d="M 129.5,207.5 C 130.222,207.918 130.722,208.584 131,209.5C 132.11,207.963 133.61,207.297 135.5,207.5C 135.5,213.167 135.5,218.833 135.5,224.5C 133.5,224.5 131.5,224.5 129.5,224.5C 129.5,218.833 129.5,213.167 129.5,207.5 Z"/></g>
<g><path style="opacity:1" fill="#33c1ae" d="M 143.5,203.5 C 144.383,207.957 145.883,212.29 148,216.5C 148.973,213.421 149.806,210.421 150.5,207.5C 150.5,213.167 150.5,218.833 150.5,224.5C 148.167,224.5 145.833,224.5 143.5,224.5C 143.5,217.5 143.5,210.5 143.5,203.5 Z"/></g>
<g><path style="opacity:0.388" fill="#a7f0e4" d="M 169.5,197.5 C 177.984,196.507 186.651,196.174 195.5,196.5C 195.5,199.167 195.5,201.833 195.5,204.5C 191.774,204.177 188.107,204.511 184.5,205.5C 187.768,206.487 191.102,206.82 194.5,206.5C 194.5,209.167 194.5,211.833 194.5,214.5C 190.685,213.918 187.351,214.752 184.5,217C 188.211,217.175 191.878,217.675 195.5,218.5C 196.42,220.786 196.42,223.119 195.5,225.5C 189.5,225.5 183.5,225.5 177.5,225.5C 177.5,225.167 177.5,224.833 177.5,224.5C 183.167,224.5 188.833,224.5 194.5,224.5C 194.5,222.5 194.5,220.5 194.5,218.5C 190.629,218.815 186.962,218.482 183.5,217.5C 183.5,216.167 183.5,214.833 183.5,213.5C 186.833,213.5 190.167,213.5 193.5,213.5C 193.5,211.5 193.5,209.5 193.5,207.5C 190.833,207.5 188.167,207.5 185.5,207.5C 183.824,206.817 183.157,205.483 183.5,203.5C 187.167,203.5 190.833,203.5 194.5,203.5C 194.5,201.5 194.5,199.5 194.5,197.5C 186.167,197.5 177.833,197.5 169.5,197.5 Z"/></g>
<g><path style="opacity:0.275" fill="#b7eff1" d="M 99.5,222.5 C 101.027,222.427 102.027,223.094 102.5,224.5C 100.973,224.573 99.9731,223.906 99.5,222.5 Z"/></g>
<g><path style="opacity:0.319" fill="#99ede0" d="M 50.5,201.5 C 50.1667,201.5 49.8333,201.5 49.5,201.5C 48.657,199.827 47.3237,198.66 45.5,198C 40.8452,197.501 36.1785,197.334 31.5,197.5C 30.507,205.984 30.1736,214.651 30.5,223.5C 35.9753,224.489 41.642,224.822 47.5,224.5C 41.69,225.49 35.69,225.823 29.5,225.5C 29.5,215.833 29.5,206.167 29.5,196.5C 35.1764,196.334 40.8431,196.501 46.5,197C 48.751,197.748 50.0844,199.248 50.5,201.5 Z"/></g>
<g><path style="opacity:0.322" fill="#a2f0ed" d="M 79.5,220.5 C 79.5792,221.93 79.2458,223.264 78.5,224.5C 69.5246,225.498 60.5246,225.832 51.5,225.5C 51.8693,223.007 51.2027,222.34 49.5,223.5C 51.314,219.357 52.314,219.69 52.5,224.5C 60.8599,224.831 69.1932,224.498 77.5,223.5C 77.9424,222.261 78.6091,221.261 79.5,220.5 Z"/></g>
<g><path style="opacity:0.208" fill="#aaede6" d="M 170.5,219.5 C 170.167,221.5 169.833,223.5 169.5,225.5C 165.958,225.813 162.625,225.479 159.5,224.5C 162.5,224.5 165.5,224.5 168.5,224.5C 168.12,222.302 168.787,220.635 170.5,219.5 Z"/></g>
<g><path style="opacity:0.304" fill="#a9eae8" d="M 102.5,224.5 C 107.177,225.741 111.843,225.741 116.5,224.5C 114.538,226.017 112.205,226.684 109.5,226.5C 106.795,226.684 104.462,226.017 102.5,224.5 Z"/></g>
</svg>
